<svg width="40" height="34" viewBox="0 0 40 34" fill="none" xmlns="http://www.w3.org/2000/svg">
<g clip-path="url(#clip0_44_4260)">
<path d="M40.0015 17.455C39.8762 17.8093 39.7927 18.1857 39.6185 18.5157C38.9809 19.7126 37.9488 20.3464 36.5546 20.3969C35.8137 20.4241 35.0707 20.411 34.3288 20.3969C34.2354 20.3845 34.1405 20.4045 34.0609 20.4533C33.9813 20.502 33.922 20.5764 33.8936 20.6633C31.8618 24.9453 28.5058 27.7378 23.8057 28.9973C23.5584 29.0639 23.5166 29.1729 23.5145 29.3888C23.5083 29.9944 23.5406 30.5999 23.4446 31.1943C23.1629 32.916 21.5662 34.0978 19.7515 33.9918C18.038 33.8909 16.5938 32.4871 16.4957 30.8239C16.3913 29.0952 17.6238 27.5491 19.379 27.2766C20.2138 27.1484 21.0664 27.1706 21.9012 27.0546C27.0146 26.3481 31.2169 22.6625 32.4921 17.7941C34.2891 10.9316 29.805 3.97715 22.6369 2.51684C15.4114 1.04542 8.3237 5.8472 7.25407 12.9409C6.92848 15.0925 7.21546 17.1795 7.93237 19.2221C8.0576 19.5794 8.1703 19.9397 8.28613 20.3C8.29239 20.3202 8.27675 20.3474 8.26527 20.4009C7.20607 20.4009 6.14061 20.407 5.07515 20.4009C4.36033 20.3948 3.63403 20.4403 2.93382 20.3333C1.21197 20.0699 0.0254663 18.6893 0.0119003 17.01C-0.00201363 15.4995 -0.00201363 13.9888 0.0119003 12.4777C0.0275534 10.5682 1.56051 9.09582 3.54115 9.07261C4.20484 9.06555 4.86958 9.05444 5.53223 9.07866C5.83903 9.09077 5.97573 8.99187 6.10826 8.72141C8.24544 4.36367 11.7016 1.50259 16.5698 0.394483C23.6659 -1.22024 30.8131 2.23224 33.83 8.65379C33.9802 8.97471 34.1514 9.08876 34.5166 9.08169C35.3514 9.06554 36.1863 9.03123 37.0096 9.13417C38.5207 9.32491 39.5966 10.3593 39.9315 11.8025C39.9518 11.8744 39.9762 11.9452 40.0046 12.0144L40.0015 17.455Z" fill="#212727"/>
<path d="M9.47628 24.9364V22.6879C10.4405 22.6081 11.1658 22.2004 11.5915 21.3487C11.6425 21.2639 11.6646 21.1657 11.6547 21.068C11.6448 20.9704 11.6033 20.8783 11.5362 20.8047C7.13979 14.9312 10.0628 6.82726 17.2757 4.89363C23.2239 3.2991 29.4455 7.17746 30.4066 13.0682C31.3343 18.756 27.4263 23.9332 21.5219 24.8264C21.0588 24.8943 20.5909 24.9281 20.1225 24.9273C16.6739 24.936 13.2247 24.9384 9.77473 24.9344L9.47628 24.9364ZM16.4586 15.8536V13.6212H14.1628V15.8536H16.4586ZM18.8588 13.6111V15.8394H21.1431V13.6111H18.8588ZM23.5338 15.8374H25.8463V13.6263H23.538L23.5338 15.8374Z" fill="#212727"/>
</g>
<defs>
<clipPath id="clip0_44_4260">
<rect width="40" height="34" fill="white"/>
</clipPath>
</defs>
</svg>
