<svg width="34" height="28" viewBox="0 0 34 28" fill="none" xmlns="http://www.w3.org/2000/svg">
<path fill-rule="evenodd" clip-rule="evenodd" d="M0.200195 14.8H17.8002V4.39999C17.8002 2.846 18.6864 1.49897 19.9809 0.836699C19.5904 0.561569 19.1142 0.399994 18.6002 0.399994H2.6002C1.27471 0.399994 0.200195 1.47451 0.200195 2.79999V14.8ZM33.8002 18.8C33.8002 18.1852 33.5691 17.6245 33.189 17.1999C33.5691 16.7752 33.8002 16.2145 33.8002 15.5997V13.2H28.2002C26.8747 13.2 25.8002 12.1255 25.8002 10.8V7.6C25.8002 6.27452 26.8747 5.2 28.2002 5.2H32.4751L32.4343 5.03396C32.2011 4.08501 31.4158 3.3722 30.4488 3.23167L22.1454 2.02495C22.0311 2.00834 21.9157 2 21.8002 2C20.4747 2 19.4002 3.07452 19.4002 4.4V15.5997C19.4002 15.8803 19.4484 16.1497 19.5369 16.4H2.6002C1.27471 16.4 0.200195 17.4745 0.200195 18.8V20.4C0.200195 21.7255 1.27471 22.8 2.6002 22.8H3.45691C3.84509 20.0862 6.17902 18 9.0002 18C11.8214 18 14.1553 20.0862 14.5435 22.8H21.0569C21.4451 20.0862 23.779 18 26.6002 18C29.3825 18 31.6909 20.0291 32.1263 22.6882C33.0969 22.3805 33.8002 21.4724 33.8002 20.4V18.8ZM33.7309 10.31L32.8683 6.79999H28.2002C27.7584 6.79999 27.4002 7.15816 27.4002 7.59999V10.8C27.4002 11.2418 27.7584 11.6 28.2002 11.6H33.8002V10.8827C33.8002 10.6897 33.7769 10.4974 33.7309 10.31ZM13.0002 23.6C13.0002 25.8091 11.2093 27.6 9.0002 27.6C6.79106 27.6 5.0002 25.8091 5.0002 23.6C5.0002 21.3909 6.79106 19.6 9.0002 19.6C11.2093 19.6 13.0002 21.3909 13.0002 23.6ZM30.6002 23.6C30.6002 25.8091 28.8093 27.6 26.6002 27.6C24.3911 27.6 22.6002 25.8091 22.6002 23.6C22.6002 21.3909 24.3911 19.6 26.6002 19.6C28.8093 19.6 30.6002 21.3909 30.6002 23.6Z" fill="white"/>
</svg>
