<svg width="30" height="30" viewBox="0 0 30 30" fill="none" xmlns="http://www.w3.org/2000/svg">
<path fill-rule="evenodd" clip-rule="evenodd" d="M4.67934 6.65668L4.4141 4.4804C4.31856 3.55781 3.53206 2.85623 2.59343 2.85623H1.61279C1.00601 2.85623 0.51416 2.37031 0.51416 1.77095C0.51416 1.17159 1.00601 0.685669 1.61279 0.685669H2.59343C4.65903 0.685669 6.38973 2.22949 6.59996 4.2595L6.80012 6.19232H29.096C29.5569 6.19232 29.9032 6.60803 29.8145 7.0549L27.8667 16.8683C27.3952 19.2439 25.2875 20.9575 22.8371 20.9575H11.1629C11.4996 22.4252 12.8273 23.4891 14.376 23.4891H23.5709C23.625 23.4891 23.6788 23.493 23.6518 23.4978C23.7323 23.492 23.8133 23.4891 23.8946 23.4891C25.7145 23.4891 27.1898 24.9467 27.1898 26.7445C27.1898 28.5424 25.7145 30 23.8946 30C22.0747 30 20.5993 28.5424 20.5993 26.7445C20.5993 26.3699 20.6636 26.0042 20.7868 25.6597H16.7515C16.8747 26.0042 16.939 26.3699 16.939 26.7445C16.939 28.5424 15.4637 30 13.6438 30C11.8238 30 10.3485 28.5424 10.3485 26.7445C10.3485 25.9517 10.6374 25.2044 11.1451 24.622C9.89624 23.7236 9.07243 22.3376 8.9127 20.791L8.89583 20.6276C7.10786 19.9551 5.78827 18.3205 5.6125 16.3351L5.16973 11.3339C5.16226 11.303 5.15676 11.2712 5.1534 11.2387L4.67934 6.65668Z" fill="#1B1D21"/>
</svg>
