<svg width="34" height="33" viewBox="0 0 34 33" fill="none" xmlns="http://www.w3.org/2000/svg">
<path fill-rule="evenodd" clip-rule="evenodd" d="M5.8002 0.200012H28.2002C31.293 0.200012 33.8002 2.70722 33.8002 5.80001V17C33.8002 20.0928 31.293 22.6 28.2002 22.6H5.8002C2.7074 22.6 0.200195 20.0928 0.200195 17V5.80001C0.200195 2.70722 2.7074 0.200012 5.8002 0.200012ZM33.8002 21.8V21C33.8002 21 32.5913 23.9287 28.2002 24.2H5.8002C1.31511 23.8688 0.200195 21 0.200195 21V21.8C0.200195 24.8928 2.7074 27.4 5.8002 27.4H28.2002C31.293 27.4 33.8002 24.8928 33.8002 21.8ZM33.8002 26.6V25.8C33.8002 25.8 32.5913 28.7287 28.2002 29H5.8002C1.31511 28.6688 0.200195 25.8 0.200195 25.8V26.6C0.200195 29.6928 2.7074 32.2 5.8002 32.2H28.2002C31.293 32.2 33.8002 29.6928 33.8002 26.6ZM20.2002 6.6H17.8002V5.8C17.8002 5.35817 17.442 5 17.0002 5C16.5584 5 16.2002 5.35817 16.2002 5.8V6.6H15.4225C14.097 6.6 13.0225 7.67452 13.0225 9V9.80121C13.0225 11.1267 14.097 12.2012 15.4225 12.2012H18.6002C19.042 12.2012 19.4002 12.5594 19.4002 13.0012V13.8C19.4002 14.2418 19.042 14.6 18.6002 14.6H14.6198C14.5869 14.1997 14.2578 13.8795 13.8468 13.867C13.4052 13.8535 13.0363 14.2007 13.0229 14.6423L13.0006 15.3757C12.9869 15.8268 13.3488 16.2 13.8002 16.2H16.2002V16.986C16.2002 17.4278 16.5584 17.786 17.0002 17.786C17.442 17.786 17.8002 17.4278 17.8002 16.986V16.2H18.6002C19.9257 16.2 21.0002 15.1255 21.0002 13.8V13.0012C21.0002 11.6757 19.9257 10.6012 18.6002 10.6012H15.4225C14.9807 10.6012 14.6225 10.243 14.6225 9.80121V9C14.6225 8.55817 14.9807 8.2 15.4225 8.2H19.424C19.5108 8.54792 19.8254 8.80567 20.2002 8.80567C20.642 8.80567 21.0002 8.44749 21.0002 8.00566V7.4C21.0002 6.95817 20.642 6.6 20.2002 6.6Z" fill="white"/>
</svg>
