<svg width="34" height="26" viewBox="0 0 34 26" fill="none" xmlns="http://www.w3.org/2000/svg">
<path fill-rule="evenodd" clip-rule="evenodd" d="M28.2002 0H5.8002C2.7074 0 0.200195 2.50721 0.200195 5.6V6.4H33.8002V5.6C33.8002 2.50721 31.293 0 28.2002 0ZM0.200195 20V12.8H33.8002V20C33.8002 23.0928 31.293 25.6 28.2002 25.6H5.8002C2.7074 25.6 0.200195 23.0928 0.200195 20ZM28.2002 20.8H21.8002C21.3584 20.8 21.0002 20.4418 21.0002 20C21.0002 19.5582 21.3584 19.2 21.8002 19.2H28.2002C28.642 19.2 29.0002 19.5582 29.0002 20C29.0002 20.4418 28.642 20.8 28.2002 20.8ZM0.200195 11.2V8H33.8002V11.2H0.200195Z" fill="white"/>
</svg>
