<svg width="21" height="20" viewBox="0 0 21 20" fill="none" xmlns="http://www.w3.org/2000/svg">
<path fill-rule="evenodd" clip-rule="evenodd" d="M20.1699 18.2066L17.0944 15.2073C20.1424 11.603 19.9099 6.28515 16.4847 2.94372C12.8281 -0.623492 6.89956 -0.623492 3.24295 2.94372C-0.413665 6.51093 -0.413665 12.2945 3.24295 15.8617C6.6678 19.2028 12.1183 19.43 15.8129 16.4573L18.8886 19.4569C19.743 20.2902 21.0243 19.0399 20.1699 18.2066ZM9.70881 16.7372C13.9468 16.7372 17.3824 13.3857 17.3824 9.25131C17.3824 5.11695 13.9468 1.76538 9.70881 1.76538C5.47083 1.76538 2.03526 5.11695 2.03526 9.25131C2.03526 13.3857 5.47083 16.7372 9.70881 16.7372Z" fill="white"/>
</svg>
