<svg width="34" height="34" viewBox="0 0 34 34" fill="none" xmlns="http://www.w3.org/2000/svg">
<path fill-rule="evenodd" clip-rule="evenodd" d="M33.8002 22.0741C33.151 21.2719 32.333 20.612 31.4002 20.1484V17C31.4002 8.82619 25.174 2.64844 17.0002 2.64844C8.82638 2.64844 2.6002 8.82619 2.6002 17V20.1484C1.66737 20.612 0.849342 21.2719 0.200195 22.0741V17C0.200195 7.50071 7.5009 0.248444 17.0002 0.248444C26.4995 0.248444 33.8002 7.50071 33.8002 17V22.0741ZM5.07095 21.0471C5.02451 21.2909 5.0002 21.5427 5.0002 21.8V31.4C5.0002 31.6574 5.02451 31.9091 5.07095 32.153C2.32271 31.7956 0.200195 29.4457 0.200195 26.6C0.200195 23.7544 2.32271 21.4045 5.07095 21.0471ZM29.0002 31.4C29.0002 31.6574 28.9759 31.9091 28.9294 32.153C31.6777 31.7956 33.8002 29.4457 33.8002 26.6C33.8002 23.7544 31.6777 21.4045 28.9294 21.0471C28.9759 21.2909 29.0002 21.5427 29.0002 21.8V31.4ZM9.0002 19.4H10.6002C11.9257 19.4 13.0002 20.4745 13.0002 21.8V31.4C13.0002 32.7255 11.9257 33.8 10.6002 33.8H9.0002C7.67471 33.8 6.6002 32.7255 6.6002 31.4V21.8C6.6002 20.4745 7.67471 19.4 9.0002 19.4ZM25.0002 19.4H23.4002C22.0747 19.4 21.0002 20.4745 21.0002 21.8V31.4C21.0002 32.7255 22.0747 33.8 23.4002 33.8H25.0002C26.3257 33.8 27.4002 32.7255 27.4002 31.4V21.8C27.4002 20.4745 26.3257 19.4 25.0002 19.4Z" fill="white"/>
</svg>
