<svg width="16" height="14" viewBox="0 0 16 14" fill="none" xmlns="http://www.w3.org/2000/svg">
<path d="M14.3438 3.75C14.9688 3.28125 15.5312 2.71875 16 2.03125C15.375 2.3125 14.75 2.5 14.125 2.5625C14.8125 2.125 15.3125 1.53125 15.5625 0.75C14.9062 1.125 14.2188 1.40625 13.4688 1.53125C13.1562 1.21875 12.7812 0.96875 12.375 0.78125C11.9688 0.59375 11.5312 0.5 11.0625 0.5C10.4688 0.5 9.9375 0.65625 9.4375 0.9375C8.9375 1.25 8.53125 1.65625 8.25 2.15625C7.9375 2.65625 7.8125 3.21875 7.8125 3.78125C7.8125 4.03125 7.8125 4.28125 7.875 4.53125C6.53125 4.46875 5.28125 4.15625 4.09375 3.53125C2.90625 2.9375 1.9375 2.125 1.125 1.09375C0.8125 1.625 0.65625 2.1875 0.65625 2.75C0.65625 3.3125 0.78125 3.84375 1.0625 4.3125C1.3125 4.8125 1.6875 5.1875 2.125 5.5C1.59375 5.5 1.09375 5.34375 0.65625 5.0625V5.125C0.65625 5.90625 0.90625 6.59375 1.40625 7.1875C1.90625 7.8125 2.53125 8.1875 3.28125 8.34375C2.96875 8.40625 2.6875 8.4375 2.40625 8.4375C2.21875 8.4375 2 8.4375 1.8125 8.40625C2 9.0625 2.375 9.59375 2.9375 10.0312C3.5 10.4688 4.125 10.6562 4.875 10.6562C3.65625 11.5938 2.28125 12.0625 0.78125 12.0625C0.46875 12.0625 0.21875 12.0625 0 12.0312C1.5 13.0312 3.1875 13.5 5.03125 13.5C6.9375 13.5 8.625 13.0312 10.125 12.0312C11.4688 11.1562 12.5312 10 13.2812 8.5C14 7.125 14.375 5.65625 14.375 4.15625C14.375 3.96875 14.3438 3.84375 14.3438 3.75Z" fill="#1B1D21"/>
</svg>
