<svg width="19" height="12" viewBox="0 0 19 12" fill="none" xmlns="http://www.w3.org/2000/svg">
<path d="M17.6875 1.875C17.8125 2.4375 17.9375 3.3125 18 4.4375L18.0312 6L18 7.5625C17.9375 8.75 17.8125 9.59375 17.6875 10.1562C17.5625 10.5312 17.375 10.8438 17.125 11.0938C16.8438 11.375 16.5312 11.5625 16.1562 11.6562C15.5938 11.8125 14.3438 11.9062 12.3438 11.9688L9.5 12L6.65625 11.9688C4.65625 11.9062 3.375 11.8125 2.84375 11.6562C2.46875 11.5625 2.125 11.375 1.875 11.0938C1.59375 10.8438 1.40625 10.5312 1.3125 10.1562C1.15625 9.59375 1.0625 8.75 1 7.5625L0.96875 6C0.96875 5.5625 0.96875 5.03125 1 4.4375C1.0625 3.3125 1.15625 2.4375 1.3125 1.875C1.40625 1.5 1.59375 1.1875 1.875 0.90625C2.125 0.65625 2.46875 0.46875 2.84375 0.34375C3.375 0.21875 4.65625 0.09375 6.65625 0.03125L9.5 0L12.3438 0.03125C14.3438 0.09375 15.5938 0.21875 16.1562 0.34375C16.5312 0.46875 16.8438 0.65625 17.125 0.90625C17.375 1.1875 17.5625 1.5 17.6875 1.875ZM7.75 8.5625L12.2188 6L7.75 3.46875V8.5625Z" fill="#1B1D21"/>
</svg>
